<mxfile host="app.diagrams.net" modified="2021-11-28T04:04:39.781Z" agent="5.0 (Windows NT 10.0; Win64; x64) AppleWebKit/537.36 (KHTML, like Gecko) Chrome/96.0.4664.45 Safari/537.36" etag="G35zkfVzjUPKC5nRPUUM" version="15.7.3" type="github">
  <diagram id="AtlF3DiGu45CcL0kuLVt" name="Page-1">
    <mxGraphModel dx="2306" dy="365" grid="1" gridSize="10" guides="1" tooltips="1" connect="1" arrows="1" fold="1" page="1" pageScale="1" pageWidth="827" pageHeight="1169" math="0" shadow="0">
      <root>
        <mxCell id="0" />
        <mxCell id="1" parent="0" />
        <mxCell id="lHE03YYVzTh4PFNWfRJk-69" value="&lt;br style=&quot;text-align: left&quot;&gt;&lt;span style=&quot;text-align: left&quot;&gt;&lt;br&gt;&lt;br&gt;&lt;/span&gt;&lt;div style=&quot;text-align: left&quot;&gt;id=&quot;R1.1&quot;&lt;/div&gt;&lt;span&gt;&lt;div style=&quot;text-align: justify&quot;&gt;&lt;span&gt;Todo usuario debe proporcionar la información de registro necesaria para poder acceder a la plataforma según su rol en la plataforma.&lt;/span&gt;&lt;/div&gt;&lt;/span&gt;" style="rounded=0;whiteSpace=wrap;html=1;" vertex="1" parent="1">
          <mxGeometry x="-570" y="860" width="200" height="155" as="geometry" />
        </mxCell>
        <mxCell id="lHE03YYVzTh4PFNWfRJk-55" value="&lt;font style=&quot;font-size: 15px&quot;&gt;&lt;b&gt;req&amp;nbsp;&lt;/b&gt;&lt;span style=&quot;text-align: left&quot;&gt;interfaz de administracion_Requerimientos&lt;/span&gt;&lt;/font&gt;" style="shape=umlFrame;whiteSpace=wrap;html=1;width=230;height=50;" vertex="1" parent="1">
          <mxGeometry x="-1040" y="1800" width="2330" height="650" as="geometry" />
        </mxCell>
        <mxCell id="bjxUz_0HNQe92oVdcdLu-1" value="&lt;font style=&quot;font-size: 15px&quot;&gt;&lt;b&gt;req&amp;nbsp;&lt;/b&gt;&lt;span style=&quot;text-align: left&quot;&gt;interfaz de administracion_Requerimientos&lt;/span&gt;&lt;/font&gt;" style="shape=umlFrame;whiteSpace=wrap;html=1;width=230;height=50;" parent="1" vertex="1">
          <mxGeometry x="-1150" width="2330" height="650" as="geometry" />
        </mxCell>
        <mxCell id="bjxUz_0HNQe92oVdcdLu-3" value="&lt;br&gt;id=&quot;R1.1&quot;&lt;br&gt;Todo usuario debe proporcionar la información de registro necesaria para poder acceder a la plataforma según su rol en la plataforma." style="rounded=0;whiteSpace=wrap;html=1;align=left;" parent="1" vertex="1">
          <mxGeometry x="-640" y="240" width="200" height="130" as="geometry" />
        </mxCell>
        <mxCell id="bjxUz_0HNQe92oVdcdLu-4" value="" style="endArrow=none;html=1;exitX=0;exitY=0.25;exitDx=0;exitDy=0;entryX=1;entryY=0.25;entryDx=0;entryDy=0;" parent="1" source="bjxUz_0HNQe92oVdcdLu-3" target="bjxUz_0HNQe92oVdcdLu-3" edge="1">
          <mxGeometry width="50" height="50" relative="1" as="geometry">
            <mxPoint x="-340" y="420" as="sourcePoint" />
            <mxPoint x="-290" y="370" as="targetPoint" />
          </mxGeometry>
        </mxCell>
        <mxCell id="bjxUz_0HNQe92oVdcdLu-6" value="&lt;span&gt;&lt;br&gt;&lt;br&gt;&lt;br&gt;&lt;br&gt;id=&quot;R1.2&quot;&lt;br&gt;El usuario solo podrá&amp;nbsp;acceder a la plataforma mediante el ingreso de su respectiva cuenta y contraseña.&lt;br&gt;Siempre y cuando se haya registrado&lt;br&gt;&lt;br&gt;&lt;br&gt;&lt;/span&gt;" style="rounded=0;whiteSpace=wrap;html=1;align=left;" parent="1" vertex="1">
          <mxGeometry x="-282" y="240" width="200" height="130" as="geometry" />
        </mxCell>
        <mxCell id="bjxUz_0HNQe92oVdcdLu-7" value="" style="endArrow=none;html=1;exitX=0;exitY=0.25;exitDx=0;exitDy=0;entryX=1;entryY=0.25;entryDx=0;entryDy=0;" parent="1" source="bjxUz_0HNQe92oVdcdLu-6" target="bjxUz_0HNQe92oVdcdLu-6" edge="1">
          <mxGeometry width="50" height="50" relative="1" as="geometry">
            <mxPoint x="-47" y="420" as="sourcePoint" />
            <mxPoint x="3" y="370" as="targetPoint" />
          </mxGeometry>
        </mxCell>
        <mxCell id="bjxUz_0HNQe92oVdcdLu-8" value="&lt;b&gt;&amp;lt;&amp;lt;requirement&amp;gt;&amp;gt;&lt;/b&gt;&lt;b&gt;&lt;br&gt;Registro de usuarios&lt;/b&gt;" style="text;html=1;strokeColor=none;fillColor=none;align=center;verticalAlign=middle;whiteSpace=wrap;rounded=0;" parent="1" vertex="1">
          <mxGeometry x="-650" y="240" width="200" height="40" as="geometry" />
        </mxCell>
        <mxCell id="bjxUz_0HNQe92oVdcdLu-9" value="&lt;b&gt;&amp;lt;&amp;lt;requirement&amp;gt;&amp;gt;&lt;/b&gt;&lt;b&gt;&lt;br&gt;Entrada de usuarios&lt;/b&gt;" style="text;html=1;strokeColor=none;fillColor=none;align=center;verticalAlign=middle;whiteSpace=wrap;rounded=0;" parent="1" vertex="1">
          <mxGeometry x="-282" y="240" width="200" height="40" as="geometry" />
        </mxCell>
        <mxCell id="bjxUz_0HNQe92oVdcdLu-11" value="&lt;b&gt;&amp;lt;&amp;lt;requirement&amp;gt;&amp;gt;&lt;/b&gt;&lt;b&gt;&lt;br&gt;Acceder a la plataforma&lt;/b&gt;" style="rounded=0;whiteSpace=wrap;html=1;" parent="1" vertex="1">
          <mxGeometry x="-640" y="120" width="190" height="50" as="geometry" />
        </mxCell>
        <mxCell id="bjxUz_0HNQe92oVdcdLu-12" value="" style="verticalLabelPosition=bottom;verticalAlign=top;html=1;shape=mxgraph.flowchart.summing_function;" parent="1" vertex="1">
          <mxGeometry x="-500" y="170" width="20" height="20" as="geometry" />
        </mxCell>
        <mxCell id="bjxUz_0HNQe92oVdcdLu-13" value="" style="verticalLabelPosition=bottom;verticalAlign=top;html=1;shape=mxgraph.flowchart.summing_function;" parent="1" vertex="1">
          <mxGeometry x="-590" y="170" width="20" height="20" as="geometry" />
        </mxCell>
        <mxCell id="bjxUz_0HNQe92oVdcdLu-14" value="" style="endArrow=none;html=1;exitX=0.5;exitY=1;exitDx=0;exitDy=0;exitPerimeter=0;entryX=0.355;entryY=-0.05;entryDx=0;entryDy=0;entryPerimeter=0;" parent="1" source="bjxUz_0HNQe92oVdcdLu-13" target="bjxUz_0HNQe92oVdcdLu-8" edge="1">
          <mxGeometry width="50" height="50" relative="1" as="geometry">
            <mxPoint x="-330" y="270" as="sourcePoint" />
            <mxPoint x="-280" y="220" as="targetPoint" />
          </mxGeometry>
        </mxCell>
        <mxCell id="bjxUz_0HNQe92oVdcdLu-15" value="" style="endArrow=none;html=1;exitX=0.5;exitY=1;exitDx=0;exitDy=0;exitPerimeter=0;" parent="1" source="bjxUz_0HNQe92oVdcdLu-12" target="bjxUz_0HNQe92oVdcdLu-6" edge="1">
          <mxGeometry width="50" height="50" relative="1" as="geometry">
            <mxPoint x="-330" y="270" as="sourcePoint" />
            <mxPoint x="-280" y="220" as="targetPoint" />
          </mxGeometry>
        </mxCell>
        <mxCell id="bjxUz_0HNQe92oVdcdLu-18" value="" style="endArrow=none;dashed=1;html=1;dashPattern=1 3;strokeWidth=2;exitX=1;exitY=0.5;exitDx=0;exitDy=0;entryX=0;entryY=0.5;entryDx=0;entryDy=0;" parent="1" source="bjxUz_0HNQe92oVdcdLu-3" target="bjxUz_0HNQe92oVdcdLu-6" edge="1">
          <mxGeometry width="50" height="50" relative="1" as="geometry">
            <mxPoint x="-330" y="270" as="sourcePoint" />
            <mxPoint x="-280" y="220" as="targetPoint" />
          </mxGeometry>
        </mxCell>
        <mxCell id="bjxUz_0HNQe92oVdcdLu-19" value="" style="endArrow=classic;html=1;entryX=0;entryY=0.5;entryDx=0;entryDy=0;" parent="1" target="bjxUz_0HNQe92oVdcdLu-6" edge="1">
          <mxGeometry width="50" height="50" relative="1" as="geometry">
            <mxPoint x="-300" y="300" as="sourcePoint" />
            <mxPoint x="-280" y="220" as="targetPoint" />
          </mxGeometry>
        </mxCell>
        <mxCell id="bjxUz_0HNQe92oVdcdLu-20" value="&amp;lt;&amp;lt;deriveReq&amp;gt;&amp;gt;" style="text;html=1;strokeColor=none;fillColor=none;align=center;verticalAlign=middle;whiteSpace=wrap;rounded=0;" parent="1" vertex="1">
          <mxGeometry x="-430" y="280" width="130" height="20" as="geometry" />
        </mxCell>
        <mxCell id="bjxUz_0HNQe92oVdcdLu-21" value="&lt;b&gt;RefinesBy&lt;br&gt;&amp;lt;&amp;lt;useCase&amp;gt;&amp;gt;&lt;/b&gt;&lt;font style=&quot;font-size: 11px&quot;&gt;interfaz de administracion_CasosDeUso:&lt;br&gt;&lt;/font&gt;Registrar usuario en la plataforma" style="shape=note;whiteSpace=wrap;html=1;backgroundOutline=1;darkOpacity=0.05;size=15;align=left;" parent="1" vertex="1">
          <mxGeometry x="-640" y="510" width="290" height="50" as="geometry" />
        </mxCell>
        <mxCell id="bjxUz_0HNQe92oVdcdLu-23" value="" style="endArrow=none;dashed=1;html=1;exitX=0;exitY=0;exitDx=92.5;exitDy=0;exitPerimeter=0;entryX=0.465;entryY=1;entryDx=0;entryDy=0;entryPerimeter=0;" parent="1" source="bjxUz_0HNQe92oVdcdLu-21" target="bjxUz_0HNQe92oVdcdLu-3" edge="1">
          <mxGeometry width="50" height="50" relative="1" as="geometry">
            <mxPoint x="-330" y="370" as="sourcePoint" />
            <mxPoint x="-280" y="320" as="targetPoint" />
          </mxGeometry>
        </mxCell>
        <mxCell id="bjxUz_0HNQe92oVdcdLu-24" value="" style="endArrow=none;dashed=1;html=1;exitX=0.417;exitY=-0.08;exitDx=0;exitDy=0;exitPerimeter=0;entryX=0.5;entryY=1;entryDx=0;entryDy=0;" parent="1" source="bjxUz_0HNQe92oVdcdLu-25" target="bjxUz_0HNQe92oVdcdLu-6" edge="1">
          <mxGeometry width="50" height="50" relative="1" as="geometry">
            <mxPoint x="-180" y="440" as="sourcePoint" />
            <mxPoint x="-280" y="320" as="targetPoint" />
          </mxGeometry>
        </mxCell>
        <mxCell id="bjxUz_0HNQe92oVdcdLu-25" value="&lt;b&gt;RefinesBy&lt;br&gt;&amp;lt;&amp;lt;useCase&amp;gt;&amp;gt;&lt;/b&gt;&lt;font style=&quot;font-size: 11px&quot;&gt;interfaz de administracion_CasosDeUso:&lt;br&gt;&lt;/font&gt;Entrar a la plataforma" style="shape=note;whiteSpace=wrap;html=1;backgroundOutline=1;darkOpacity=0.05;size=15;align=left;" parent="1" vertex="1">
          <mxGeometry x="-300" y="510" width="290" height="50" as="geometry" />
        </mxCell>
        <mxCell id="bjxUz_0HNQe92oVdcdLu-27" value="&lt;br&gt;&lt;br&gt;id=&quot;R2.1&quot;&lt;br&gt;El usuario correspondiente debe hacer su pedido mediante un procedimiento establecido con los soportes necesarios según sea el caso." style="rounded=0;whiteSpace=wrap;html=1;align=left;" parent="1" vertex="1">
          <mxGeometry x="40" y="260" width="200" height="120" as="geometry" />
        </mxCell>
        <mxCell id="bjxUz_0HNQe92oVdcdLu-28" value="" style="endArrow=none;html=1;exitX=0;exitY=0.25;exitDx=0;exitDy=0;entryX=1;entryY=0.25;entryDx=0;entryDy=0;" parent="1" source="bjxUz_0HNQe92oVdcdLu-27" target="bjxUz_0HNQe92oVdcdLu-27" edge="1">
          <mxGeometry width="50" height="50" relative="1" as="geometry">
            <mxPoint x="340" y="440" as="sourcePoint" />
            <mxPoint x="390" y="390" as="targetPoint" />
          </mxGeometry>
        </mxCell>
        <mxCell id="bjxUz_0HNQe92oVdcdLu-29" value="&lt;span&gt;&lt;br&gt;&lt;br&gt;id=&quot;R2.2&quot;&lt;br&gt;El usuario podrá&amp;nbsp;reportar cualquier situación&amp;nbsp;&amp;nbsp;que crea inapropiadas&amp;nbsp;para el buen desarrollo de la unidad,y propiciar documentación&amp;nbsp;si lo cree&amp;nbsp;necesario&lt;br&gt;&lt;/span&gt;" style="rounded=0;whiteSpace=wrap;html=1;align=left;" parent="1" vertex="1">
          <mxGeometry x="350" y="250" width="200" height="130" as="geometry" />
        </mxCell>
        <mxCell id="bjxUz_0HNQe92oVdcdLu-30" value="" style="endArrow=none;html=1;exitX=0;exitY=0.25;exitDx=0;exitDy=0;entryX=1;entryY=0.25;entryDx=0;entryDy=0;" parent="1" source="bjxUz_0HNQe92oVdcdLu-29" target="bjxUz_0HNQe92oVdcdLu-29" edge="1">
          <mxGeometry width="50" height="50" relative="1" as="geometry">
            <mxPoint x="633" y="440" as="sourcePoint" />
            <mxPoint x="683" y="390" as="targetPoint" />
          </mxGeometry>
        </mxCell>
        <mxCell id="bjxUz_0HNQe92oVdcdLu-31" value="&lt;b&gt;&amp;lt;&amp;lt;requirement&amp;gt;&amp;gt;&lt;/b&gt;&lt;b&gt;&lt;br&gt;Solicitud&lt;/b&gt;" style="text;html=1;strokeColor=none;fillColor=none;align=center;verticalAlign=middle;whiteSpace=wrap;rounded=0;" parent="1" vertex="1">
          <mxGeometry x="40" y="260" width="200" height="40" as="geometry" />
        </mxCell>
        <mxCell id="bjxUz_0HNQe92oVdcdLu-32" value="&lt;b&gt;&amp;lt;&amp;lt;requirement&amp;gt;&amp;gt;&lt;/b&gt;&lt;b&gt;&lt;br&gt;Reporte&lt;/b&gt;" style="text;html=1;strokeColor=none;fillColor=none;align=center;verticalAlign=middle;whiteSpace=wrap;rounded=0;" parent="1" vertex="1">
          <mxGeometry x="350" y="250" width="200" height="40" as="geometry" />
        </mxCell>
        <mxCell id="bjxUz_0HNQe92oVdcdLu-33" value="&lt;b&gt;&amp;lt;&amp;lt;requirement&amp;gt;&amp;gt;&lt;/b&gt;&lt;b&gt;&lt;br&gt;Gestión de información&lt;/b&gt;" style="rounded=0;whiteSpace=wrap;html=1;" parent="1" vertex="1">
          <mxGeometry x="80" y="120" width="190" height="50" as="geometry" />
        </mxCell>
        <mxCell id="bjxUz_0HNQe92oVdcdLu-34" value="" style="verticalLabelPosition=bottom;verticalAlign=top;html=1;shape=mxgraph.flowchart.summing_function;" parent="1" vertex="1">
          <mxGeometry x="180" y="170" width="20" height="20" as="geometry" />
        </mxCell>
        <mxCell id="bjxUz_0HNQe92oVdcdLu-35" value="" style="verticalLabelPosition=bottom;verticalAlign=top;html=1;shape=mxgraph.flowchart.summing_function;" parent="1" vertex="1">
          <mxGeometry x="100" y="170" width="20" height="20" as="geometry" />
        </mxCell>
        <mxCell id="bjxUz_0HNQe92oVdcdLu-36" value="" style="endArrow=none;html=1;exitX=0.5;exitY=1;exitDx=0;exitDy=0;exitPerimeter=0;entryX=0.335;entryY=-0.028;entryDx=0;entryDy=0;entryPerimeter=0;" parent="1" source="bjxUz_0HNQe92oVdcdLu-35" target="bjxUz_0HNQe92oVdcdLu-27" edge="1">
          <mxGeometry width="50" height="50" relative="1" as="geometry">
            <mxPoint x="390" y="270" as="sourcePoint" />
            <mxPoint x="440" y="220" as="targetPoint" />
          </mxGeometry>
        </mxCell>
        <mxCell id="bjxUz_0HNQe92oVdcdLu-37" value="" style="endArrow=none;html=1;exitX=0.5;exitY=1;exitDx=0;exitDy=0;exitPerimeter=0;" parent="1" source="bjxUz_0HNQe92oVdcdLu-34" target="bjxUz_0HNQe92oVdcdLu-29" edge="1">
          <mxGeometry width="50" height="50" relative="1" as="geometry">
            <mxPoint x="390" y="270" as="sourcePoint" />
            <mxPoint x="440" y="220" as="targetPoint" />
          </mxGeometry>
        </mxCell>
        <mxCell id="bjxUz_0HNQe92oVdcdLu-41" value="&amp;lt;&amp;lt;deriveReq&amp;gt;&amp;gt;" style="text;html=1;strokeColor=none;fillColor=none;align=center;verticalAlign=middle;whiteSpace=wrap;rounded=0;" parent="1" vertex="1">
          <mxGeometry x="-230" y="120" width="130" height="20" as="geometry" />
        </mxCell>
        <mxCell id="bjxUz_0HNQe92oVdcdLu-42" value="" style="endArrow=none;dashed=1;html=1;dashPattern=1 3;strokeWidth=2;exitX=1;exitY=0.5;exitDx=0;exitDy=0;entryX=0;entryY=0.5;entryDx=0;entryDy=0;" parent="1" source="bjxUz_0HNQe92oVdcdLu-11" target="bjxUz_0HNQe92oVdcdLu-33" edge="1">
          <mxGeometry width="50" height="50" relative="1" as="geometry">
            <mxPoint y="290" as="sourcePoint" />
            <mxPoint x="50" y="240" as="targetPoint" />
          </mxGeometry>
        </mxCell>
        <mxCell id="bjxUz_0HNQe92oVdcdLu-43" value="" style="endArrow=classic;html=1;entryX=0;entryY=0.5;entryDx=0;entryDy=0;" parent="1" target="bjxUz_0HNQe92oVdcdLu-33" edge="1">
          <mxGeometry width="50" height="50" relative="1" as="geometry">
            <mxPoint x="40" y="145" as="sourcePoint" />
            <mxPoint x="50" y="240" as="targetPoint" />
          </mxGeometry>
        </mxCell>
        <mxCell id="bjxUz_0HNQe92oVdcdLu-44" value="&lt;span&gt;&lt;br&gt;&lt;br&gt;id=&quot;R2.3&quot;&lt;br&gt;El usuario podrá&amp;nbsp;comunicar información&amp;nbsp;con la comunidad según&amp;nbsp;sea su rol dentro del sistema, y podrá&amp;nbsp;propiciar documentos si así&amp;nbsp;lo requiere.&lt;br&gt;&lt;/span&gt;" style="rounded=0;whiteSpace=wrap;html=1;align=left;" parent="1" vertex="1">
          <mxGeometry x="710" y="250" width="200" height="130" as="geometry" />
        </mxCell>
        <mxCell id="bjxUz_0HNQe92oVdcdLu-45" value="" style="endArrow=none;html=1;exitX=0;exitY=0.25;exitDx=0;exitDy=0;entryX=1;entryY=0.25;entryDx=0;entryDy=0;" parent="1" source="bjxUz_0HNQe92oVdcdLu-44" target="bjxUz_0HNQe92oVdcdLu-44" edge="1">
          <mxGeometry width="50" height="50" relative="1" as="geometry">
            <mxPoint x="983" y="440" as="sourcePoint" />
            <mxPoint x="1033" y="390" as="targetPoint" />
          </mxGeometry>
        </mxCell>
        <mxCell id="bjxUz_0HNQe92oVdcdLu-46" value="&lt;b&gt;&amp;lt;&amp;lt;requirement&amp;gt;&amp;gt;&lt;/b&gt;&lt;b&gt;&lt;br&gt;Notificación&lt;/b&gt;" style="text;html=1;strokeColor=none;fillColor=none;align=center;verticalAlign=middle;whiteSpace=wrap;rounded=0;" parent="1" vertex="1">
          <mxGeometry x="710" y="250" width="200" height="40" as="geometry" />
        </mxCell>
        <mxCell id="bjxUz_0HNQe92oVdcdLu-48" value="" style="verticalLabelPosition=bottom;verticalAlign=top;html=1;shape=mxgraph.flowchart.summing_function;" parent="1" vertex="1">
          <mxGeometry x="240" y="170" width="20" height="20" as="geometry" />
        </mxCell>
        <mxCell id="bjxUz_0HNQe92oVdcdLu-49" value="" style="endArrow=none;html=1;exitX=0.5;exitY=1;exitDx=0;exitDy=0;exitPerimeter=0;entryX=0;entryY=0;entryDx=0;entryDy=0;" parent="1" source="bjxUz_0HNQe92oVdcdLu-48" target="bjxUz_0HNQe92oVdcdLu-46" edge="1">
          <mxGeometry width="50" height="50" relative="1" as="geometry">
            <mxPoint x="90" y="290" as="sourcePoint" />
            <mxPoint x="140" y="240" as="targetPoint" />
          </mxGeometry>
        </mxCell>
        <mxCell id="bjxUz_0HNQe92oVdcdLu-50" value="&lt;b&gt;RefinesBy&lt;br&gt;&amp;lt;&amp;lt;useCase&amp;gt;&amp;gt;&lt;/b&gt;&lt;font style=&quot;font-size: 11px&quot;&gt;interfaz de administracion_CasosDeUso:&lt;br&gt;&lt;/font&gt;Solicitar" style="shape=note;whiteSpace=wrap;html=1;backgroundOutline=1;darkOpacity=0.05;size=15;align=left;" parent="1" vertex="1">
          <mxGeometry x="40" y="510" width="290" height="50" as="geometry" />
        </mxCell>
        <mxCell id="bjxUz_0HNQe92oVdcdLu-51" value="&lt;b&gt;RefinesBy&lt;br&gt;&amp;lt;&amp;lt;useCase&amp;gt;&amp;gt;&lt;/b&gt;&lt;font style=&quot;font-size: 11px&quot;&gt;interfaz de administracion_CasosDeUso:&lt;br&gt;&lt;/font&gt;Reportar" style="shape=note;whiteSpace=wrap;html=1;backgroundOutline=1;darkOpacity=0.05;size=15;align=left;" parent="1" vertex="1">
          <mxGeometry x="400" y="510" width="290" height="50" as="geometry" />
        </mxCell>
        <mxCell id="bjxUz_0HNQe92oVdcdLu-52" value="&lt;b&gt;RefinesBy&lt;br&gt;&amp;lt;&amp;lt;useCase&amp;gt;&amp;gt;&lt;/b&gt;&lt;font style=&quot;font-size: 11px&quot;&gt;interfaz de administracion_CasosDeUso:&lt;br&gt;&lt;/font&gt;Publicar" style="shape=note;whiteSpace=wrap;html=1;backgroundOutline=1;darkOpacity=0.05;size=15;align=left;" parent="1" vertex="1">
          <mxGeometry x="760" y="510" width="290" height="50" as="geometry" />
        </mxCell>
        <mxCell id="bjxUz_0HNQe92oVdcdLu-53" value="" style="endArrow=none;dashed=1;html=1;entryX=0.344;entryY=0.027;entryDx=0;entryDy=0;entryPerimeter=0;exitX=0.5;exitY=1;exitDx=0;exitDy=0;" parent="1" source="bjxUz_0HNQe92oVdcdLu-27" target="bjxUz_0HNQe92oVdcdLu-50" edge="1">
          <mxGeometry width="50" height="50" relative="1" as="geometry">
            <mxPoint x="430" y="420" as="sourcePoint" />
            <mxPoint x="138" y="520" as="targetPoint" />
          </mxGeometry>
        </mxCell>
        <mxCell id="bjxUz_0HNQe92oVdcdLu-54" value="" style="endArrow=none;dashed=1;html=1;exitX=0.448;exitY=1;exitDx=0;exitDy=0;exitPerimeter=0;entryX=0.141;entryY=-0.027;entryDx=0;entryDy=0;entryPerimeter=0;" parent="1" source="bjxUz_0HNQe92oVdcdLu-29" target="bjxUz_0HNQe92oVdcdLu-51" edge="1">
          <mxGeometry width="50" height="50" relative="1" as="geometry">
            <mxPoint x="430" y="420" as="sourcePoint" />
            <mxPoint x="480" y="370" as="targetPoint" />
          </mxGeometry>
        </mxCell>
        <mxCell id="bjxUz_0HNQe92oVdcdLu-55" value="" style="endArrow=none;dashed=1;html=1;entryX=0.138;entryY=0;entryDx=0;entryDy=0;entryPerimeter=0;" parent="1" target="bjxUz_0HNQe92oVdcdLu-52" edge="1">
          <mxGeometry width="50" height="50" relative="1" as="geometry">
            <mxPoint x="800" y="381" as="sourcePoint" />
            <mxPoint x="610" y="320" as="targetPoint" />
          </mxGeometry>
        </mxCell>
        <mxCell id="bjxUz_0HNQe92oVdcdLu-58" value="" style="endArrow=none;dashed=1;html=1;dashPattern=1 3;strokeWidth=2;exitX=0;exitY=0.5;exitDx=0;exitDy=0;" parent="1" source="bjxUz_0HNQe92oVdcdLu-11" edge="1">
          <mxGeometry width="50" height="50" relative="1" as="geometry">
            <mxPoint x="-440" y="155" as="sourcePoint" />
            <mxPoint x="-890" y="145" as="targetPoint" />
          </mxGeometry>
        </mxCell>
        <mxCell id="bjxUz_0HNQe92oVdcdLu-59" value="&amp;lt;&amp;lt;deriveReq&amp;gt;&amp;gt;" style="text;html=1;strokeColor=none;fillColor=none;align=center;verticalAlign=middle;whiteSpace=wrap;rounded=0;" parent="1" vertex="1">
          <mxGeometry x="-827" y="120" width="130" height="20" as="geometry" />
        </mxCell>
        <mxCell id="bjxUz_0HNQe92oVdcdLu-60" value="" style="endArrow=classic;html=1;entryX=1;entryY=0.5;entryDx=0;entryDy=0;dashed=1;" parent="1" edge="1">
          <mxGeometry width="50" height="50" relative="1" as="geometry">
            <mxPoint x="-860" y="145" as="sourcePoint" />
            <mxPoint x="-890" y="145" as="targetPoint" />
          </mxGeometry>
        </mxCell>
        <mxCell id="bjxUz_0HNQe92oVdcdLu-61" value="&lt;br&gt;&lt;br&gt;&lt;br&gt;id=&quot;R3&quot;&lt;br&gt;Se debe permitir al usuario consultar información de su interés dependiendo de su respectivo rol en la plataforma" style="rounded=0;whiteSpace=wrap;html=1;align=left;" parent="1" vertex="1">
          <mxGeometry x="-1090" y="120" width="200" height="130" as="geometry" />
        </mxCell>
        <mxCell id="bjxUz_0HNQe92oVdcdLu-63" value="" style="endArrow=none;html=1;exitX=-0.007;exitY=0.344;exitDx=0;exitDy=0;exitPerimeter=0;entryX=1;entryY=0.333;entryDx=0;entryDy=0;entryPerimeter=0;" parent="1" source="bjxUz_0HNQe92oVdcdLu-61" target="bjxUz_0HNQe92oVdcdLu-61" edge="1">
          <mxGeometry width="50" height="50" relative="1" as="geometry">
            <mxPoint x="-630" y="240" as="sourcePoint" />
            <mxPoint x="-900" y="159" as="targetPoint" />
          </mxGeometry>
        </mxCell>
        <mxCell id="bjxUz_0HNQe92oVdcdLu-64" value="&lt;b&gt;&amp;lt;&amp;lt;requirement&amp;gt;&amp;gt;&lt;br&gt;Consulta de información&lt;/b&gt;" style="text;html=1;strokeColor=none;fillColor=none;align=center;verticalAlign=middle;whiteSpace=wrap;rounded=0;" parent="1" vertex="1">
          <mxGeometry x="-1090" y="130" width="160" height="20" as="geometry" />
        </mxCell>
        <mxCell id="bjxUz_0HNQe92oVdcdLu-65" value="&lt;b&gt;RefinesBy&lt;br&gt;&amp;lt;&amp;lt;useCase&amp;gt;&amp;gt;&lt;/b&gt;&lt;font style=&quot;font-size: 11px&quot;&gt;interfaz de administracion_CasosDeUso:&lt;br&gt;&lt;/font&gt;Consultar" style="shape=note;whiteSpace=wrap;html=1;backgroundOutline=1;darkOpacity=0.05;size=15;align=left;" parent="1" vertex="1">
          <mxGeometry x="-1080" y="370" width="290" height="50" as="geometry" />
        </mxCell>
        <mxCell id="bjxUz_0HNQe92oVdcdLu-66" value="" style="endArrow=none;dashed=1;html=1;exitX=0.5;exitY=1;exitDx=0;exitDy=0;entryX=0.138;entryY=0.013;entryDx=0;entryDy=0;entryPerimeter=0;exitPerimeter=0;" parent="1" source="bjxUz_0HNQe92oVdcdLu-68" target="bjxUz_0HNQe92oVdcdLu-65" edge="1">
          <mxGeometry width="50" height="50" relative="1" as="geometry">
            <mxPoint x="-680" y="340" as="sourcePoint" />
            <mxPoint x="-630" y="290" as="targetPoint" />
          </mxGeometry>
        </mxCell>
        <mxCell id="bjxUz_0HNQe92oVdcdLu-68" value="" style="verticalLabelPosition=bottom;verticalAlign=top;html=1;shape=mxgraph.flowchart.summing_function;" parent="1" vertex="1">
          <mxGeometry x="-1050" y="250" width="20" height="20" as="geometry" />
        </mxCell>
        <mxCell id="bjxUz_0HNQe92oVdcdLu-69" value="" style="endArrow=none;dashed=1;html=1;exitX=0.25;exitY=1;exitDx=0;exitDy=0;entryX=0.138;entryY=0.013;entryDx=0;entryDy=0;entryPerimeter=0;" parent="1" source="bjxUz_0HNQe92oVdcdLu-61" target="bjxUz_0HNQe92oVdcdLu-68" edge="1">
          <mxGeometry width="50" height="50" relative="1" as="geometry">
            <mxPoint x="-1040" y="250" as="sourcePoint" />
            <mxPoint x="-1039.98" y="370.65" as="targetPoint" />
          </mxGeometry>
        </mxCell>
        <mxCell id="lHE03YYVzTh4PFNWfRJk-2" value="&lt;br&gt;id=&quot;R1.1&quot;&lt;br&gt;Todo usuario debe proporcionar la información de registro necesaria para poder acceder a la plataforma según su rol en la plataforma." style="rounded=0;whiteSpace=wrap;html=1;align=left;" vertex="1" parent="1">
          <mxGeometry x="-578.6" y="1410" width="200" height="130" as="geometry" />
        </mxCell>
        <mxCell id="lHE03YYVzTh4PFNWfRJk-3" value="" style="endArrow=none;html=1;exitX=0;exitY=0.25;exitDx=0;exitDy=0;entryX=1;entryY=0.25;entryDx=0;entryDy=0;" edge="1" parent="1" source="lHE03YYVzTh4PFNWfRJk-2" target="lHE03YYVzTh4PFNWfRJk-2">
          <mxGeometry width="50" height="50" relative="1" as="geometry">
            <mxPoint x="-278.6" y="1590" as="sourcePoint" />
            <mxPoint x="-228.6" y="1540" as="targetPoint" />
          </mxGeometry>
        </mxCell>
        <mxCell id="lHE03YYVzTh4PFNWfRJk-4" value="&lt;span&gt;&lt;br&gt;&lt;br&gt;&lt;br&gt;&lt;br&gt;id=&quot;R1.2&quot;&lt;br&gt;El usuario solo podrá&amp;nbsp;acceder a la plataforma mediante el ingreso de su respectiva cuenta y contraseña.&lt;br&gt;Siempre y cuando se haya registrado&lt;br&gt;&lt;br&gt;&lt;br&gt;&lt;/span&gt;" style="rounded=0;whiteSpace=wrap;html=1;align=left;" vertex="1" parent="1">
          <mxGeometry x="-220.6" y="1410" width="200" height="130" as="geometry" />
        </mxCell>
        <mxCell id="lHE03YYVzTh4PFNWfRJk-5" value="" style="endArrow=none;html=1;exitX=0;exitY=0.25;exitDx=0;exitDy=0;entryX=1;entryY=0.25;entryDx=0;entryDy=0;" edge="1" parent="1" source="lHE03YYVzTh4PFNWfRJk-4" target="lHE03YYVzTh4PFNWfRJk-4">
          <mxGeometry width="50" height="50" relative="1" as="geometry">
            <mxPoint x="14.400000000000006" y="1590" as="sourcePoint" />
            <mxPoint x="64.4" y="1540" as="targetPoint" />
          </mxGeometry>
        </mxCell>
        <mxCell id="lHE03YYVzTh4PFNWfRJk-6" value="&lt;b&gt;&amp;lt;&amp;lt;requirement&amp;gt;&amp;gt;&lt;/b&gt;&lt;b&gt;&lt;br&gt;Registro de usuarios&lt;/b&gt;" style="text;html=1;strokeColor=none;fillColor=none;align=center;verticalAlign=middle;whiteSpace=wrap;rounded=0;" vertex="1" parent="1">
          <mxGeometry x="-588.6" y="1410" width="200" height="40" as="geometry" />
        </mxCell>
        <mxCell id="lHE03YYVzTh4PFNWfRJk-7" value="&lt;b&gt;&amp;lt;&amp;lt;requirement&amp;gt;&amp;gt;&lt;/b&gt;&lt;b&gt;&lt;br&gt;Entrada de usuarios&lt;/b&gt;" style="text;html=1;strokeColor=none;fillColor=none;align=center;verticalAlign=middle;whiteSpace=wrap;rounded=0;" vertex="1" parent="1">
          <mxGeometry x="-220.6" y="1410" width="200" height="40" as="geometry" />
        </mxCell>
        <mxCell id="lHE03YYVzTh4PFNWfRJk-8" value="&lt;b&gt;&amp;lt;&amp;lt;requirement&amp;gt;&amp;gt;&lt;/b&gt;&lt;b&gt;&lt;br&gt;Acceder a la plataforma&lt;/b&gt;" style="rounded=0;whiteSpace=wrap;html=1;" vertex="1" parent="1">
          <mxGeometry x="-578.6" y="1290" width="190" height="50" as="geometry" />
        </mxCell>
        <mxCell id="lHE03YYVzTh4PFNWfRJk-9" value="" style="verticalLabelPosition=bottom;verticalAlign=top;html=1;shape=mxgraph.flowchart.summing_function;" vertex="1" parent="1">
          <mxGeometry x="-438.6" y="1340" width="20" height="20" as="geometry" />
        </mxCell>
        <mxCell id="lHE03YYVzTh4PFNWfRJk-10" value="" style="verticalLabelPosition=bottom;verticalAlign=top;html=1;shape=mxgraph.flowchart.summing_function;" vertex="1" parent="1">
          <mxGeometry x="-528.6" y="1340" width="20" height="20" as="geometry" />
        </mxCell>
        <mxCell id="lHE03YYVzTh4PFNWfRJk-11" value="" style="endArrow=none;html=1;exitX=0.5;exitY=1;exitDx=0;exitDy=0;exitPerimeter=0;entryX=0.355;entryY=-0.05;entryDx=0;entryDy=0;entryPerimeter=0;" edge="1" parent="1" source="lHE03YYVzTh4PFNWfRJk-10" target="lHE03YYVzTh4PFNWfRJk-6">
          <mxGeometry width="50" height="50" relative="1" as="geometry">
            <mxPoint x="-268.6" y="1440" as="sourcePoint" />
            <mxPoint x="-218.6" y="1390" as="targetPoint" />
          </mxGeometry>
        </mxCell>
        <mxCell id="lHE03YYVzTh4PFNWfRJk-12" value="" style="endArrow=none;html=1;exitX=0.5;exitY=1;exitDx=0;exitDy=0;exitPerimeter=0;" edge="1" parent="1" source="lHE03YYVzTh4PFNWfRJk-9" target="lHE03YYVzTh4PFNWfRJk-4">
          <mxGeometry width="50" height="50" relative="1" as="geometry">
            <mxPoint x="-268.6" y="1440" as="sourcePoint" />
            <mxPoint x="-218.6" y="1390" as="targetPoint" />
          </mxGeometry>
        </mxCell>
        <mxCell id="lHE03YYVzTh4PFNWfRJk-13" value="" style="endArrow=none;dashed=1;html=1;dashPattern=1 3;strokeWidth=2;exitX=1;exitY=0.5;exitDx=0;exitDy=0;entryX=0;entryY=0.5;entryDx=0;entryDy=0;" edge="1" parent="1" source="lHE03YYVzTh4PFNWfRJk-2" target="lHE03YYVzTh4PFNWfRJk-4">
          <mxGeometry width="50" height="50" relative="1" as="geometry">
            <mxPoint x="-268.6" y="1440" as="sourcePoint" />
            <mxPoint x="-218.6" y="1390" as="targetPoint" />
          </mxGeometry>
        </mxCell>
        <mxCell id="lHE03YYVzTh4PFNWfRJk-14" value="" style="endArrow=classic;html=1;entryX=0;entryY=0.5;entryDx=0;entryDy=0;" edge="1" parent="1" target="lHE03YYVzTh4PFNWfRJk-4">
          <mxGeometry width="50" height="50" relative="1" as="geometry">
            <mxPoint x="-238.6" y="1470" as="sourcePoint" />
            <mxPoint x="-218.6" y="1390" as="targetPoint" />
          </mxGeometry>
        </mxCell>
        <mxCell id="lHE03YYVzTh4PFNWfRJk-15" value="&amp;lt;&amp;lt;deriveReq&amp;gt;&amp;gt;" style="text;html=1;strokeColor=none;fillColor=none;align=center;verticalAlign=middle;whiteSpace=wrap;rounded=0;" vertex="1" parent="1">
          <mxGeometry x="-368.6" y="1450" width="130" height="20" as="geometry" />
        </mxCell>
        <mxCell id="lHE03YYVzTh4PFNWfRJk-16" value="&lt;b&gt;RefinesBy&lt;br&gt;&amp;lt;&amp;lt;useCase&amp;gt;&amp;gt;&lt;/b&gt;&lt;font style=&quot;font-size: 11px&quot;&gt;interfaz de administracion_CasosDeUso:&lt;br&gt;&lt;/font&gt;Registrar usuario en la plataforma" style="shape=note;whiteSpace=wrap;html=1;backgroundOutline=1;darkOpacity=0.05;size=15;align=left;" vertex="1" parent="1">
          <mxGeometry x="-578.6" y="1680" width="290" height="50" as="geometry" />
        </mxCell>
        <mxCell id="lHE03YYVzTh4PFNWfRJk-17" value="" style="endArrow=none;dashed=1;html=1;exitX=0;exitY=0;exitDx=92.5;exitDy=0;exitPerimeter=0;entryX=0.465;entryY=1;entryDx=0;entryDy=0;entryPerimeter=0;" edge="1" parent="1" source="lHE03YYVzTh4PFNWfRJk-16" target="lHE03YYVzTh4PFNWfRJk-2">
          <mxGeometry width="50" height="50" relative="1" as="geometry">
            <mxPoint x="-268.6" y="1540" as="sourcePoint" />
            <mxPoint x="-218.6" y="1490" as="targetPoint" />
          </mxGeometry>
        </mxCell>
        <mxCell id="lHE03YYVzTh4PFNWfRJk-18" value="" style="endArrow=none;dashed=1;html=1;exitX=0.417;exitY=-0.08;exitDx=0;exitDy=0;exitPerimeter=0;entryX=0.5;entryY=1;entryDx=0;entryDy=0;" edge="1" parent="1" source="lHE03YYVzTh4PFNWfRJk-19" target="lHE03YYVzTh4PFNWfRJk-4">
          <mxGeometry width="50" height="50" relative="1" as="geometry">
            <mxPoint x="-118.6" y="1610" as="sourcePoint" />
            <mxPoint x="-218.6" y="1490" as="targetPoint" />
          </mxGeometry>
        </mxCell>
        <mxCell id="lHE03YYVzTh4PFNWfRJk-19" value="&lt;b&gt;RefinesBy&lt;br&gt;&amp;lt;&amp;lt;useCase&amp;gt;&amp;gt;&lt;/b&gt;&lt;font style=&quot;font-size: 11px&quot;&gt;interfaz de administracion_CasosDeUso:&lt;br&gt;&lt;/font&gt;Entrar a la plataforma" style="shape=note;whiteSpace=wrap;html=1;backgroundOutline=1;darkOpacity=0.05;size=15;align=left;" vertex="1" parent="1">
          <mxGeometry x="-238.6" y="1680" width="290" height="50" as="geometry" />
        </mxCell>
        <mxCell id="lHE03YYVzTh4PFNWfRJk-20" value="&lt;br&gt;&lt;br&gt;id=&quot;R2.1&quot;&lt;br&gt;El usuario correspondiente debe hacer su pedido mediante un procedimiento establecido con los soportes necesarios según sea el caso." style="rounded=0;whiteSpace=wrap;html=1;align=left;" vertex="1" parent="1">
          <mxGeometry x="101.4" y="1430" width="200" height="120" as="geometry" />
        </mxCell>
        <mxCell id="lHE03YYVzTh4PFNWfRJk-21" value="" style="endArrow=none;html=1;exitX=0;exitY=0.25;exitDx=0;exitDy=0;entryX=1;entryY=0.25;entryDx=0;entryDy=0;" edge="1" parent="1" source="lHE03YYVzTh4PFNWfRJk-20" target="lHE03YYVzTh4PFNWfRJk-20">
          <mxGeometry width="50" height="50" relative="1" as="geometry">
            <mxPoint x="401.4" y="1610" as="sourcePoint" />
            <mxPoint x="451.4" y="1560" as="targetPoint" />
          </mxGeometry>
        </mxCell>
        <mxCell id="lHE03YYVzTh4PFNWfRJk-22" value="&lt;span&gt;&lt;br&gt;&lt;br&gt;id=&quot;R2.2&quot;&lt;br&gt;El usuario podrá&amp;nbsp;reportar cualquier situación&amp;nbsp;&amp;nbsp;que crea inapropiadas&amp;nbsp;para el buen desarrollo de la unidad,y propiciar documentación&amp;nbsp;si lo cree&amp;nbsp;necesario&lt;br&gt;&lt;/span&gt;" style="rounded=0;whiteSpace=wrap;html=1;align=left;" vertex="1" parent="1">
          <mxGeometry x="411.4" y="1420" width="200" height="130" as="geometry" />
        </mxCell>
        <mxCell id="lHE03YYVzTh4PFNWfRJk-23" value="" style="endArrow=none;html=1;exitX=0;exitY=0.25;exitDx=0;exitDy=0;entryX=1;entryY=0.25;entryDx=0;entryDy=0;" edge="1" parent="1" source="lHE03YYVzTh4PFNWfRJk-22" target="lHE03YYVzTh4PFNWfRJk-22">
          <mxGeometry width="50" height="50" relative="1" as="geometry">
            <mxPoint x="694.4" y="1610" as="sourcePoint" />
            <mxPoint x="744.4" y="1560" as="targetPoint" />
          </mxGeometry>
        </mxCell>
        <mxCell id="lHE03YYVzTh4PFNWfRJk-24" value="&lt;b&gt;&amp;lt;&amp;lt;requirement&amp;gt;&amp;gt;&lt;/b&gt;&lt;b&gt;&lt;br&gt;Solicitud&lt;/b&gt;" style="text;html=1;strokeColor=none;fillColor=none;align=center;verticalAlign=middle;whiteSpace=wrap;rounded=0;" vertex="1" parent="1">
          <mxGeometry x="101.4" y="1430" width="200" height="40" as="geometry" />
        </mxCell>
        <mxCell id="lHE03YYVzTh4PFNWfRJk-25" value="&lt;b&gt;&amp;lt;&amp;lt;requirement&amp;gt;&amp;gt;&lt;/b&gt;&lt;b&gt;&lt;br&gt;Reporte&lt;/b&gt;" style="text;html=1;strokeColor=none;fillColor=none;align=center;verticalAlign=middle;whiteSpace=wrap;rounded=0;" vertex="1" parent="1">
          <mxGeometry x="411.4" y="1420" width="200" height="40" as="geometry" />
        </mxCell>
        <mxCell id="lHE03YYVzTh4PFNWfRJk-26" value="&lt;b&gt;&amp;lt;&amp;lt;requirement&amp;gt;&amp;gt;&lt;/b&gt;&lt;b&gt;&lt;br&gt;Gestión de información&lt;/b&gt;" style="rounded=0;whiteSpace=wrap;html=1;" vertex="1" parent="1">
          <mxGeometry x="141.4" y="1290" width="190" height="50" as="geometry" />
        </mxCell>
        <mxCell id="lHE03YYVzTh4PFNWfRJk-27" value="" style="verticalLabelPosition=bottom;verticalAlign=top;html=1;shape=mxgraph.flowchart.summing_function;" vertex="1" parent="1">
          <mxGeometry x="241.4" y="1340" width="20" height="20" as="geometry" />
        </mxCell>
        <mxCell id="lHE03YYVzTh4PFNWfRJk-28" value="" style="verticalLabelPosition=bottom;verticalAlign=top;html=1;shape=mxgraph.flowchart.summing_function;" vertex="1" parent="1">
          <mxGeometry x="161.4" y="1340" width="20" height="20" as="geometry" />
        </mxCell>
        <mxCell id="lHE03YYVzTh4PFNWfRJk-29" value="" style="endArrow=none;html=1;exitX=0.5;exitY=1;exitDx=0;exitDy=0;exitPerimeter=0;entryX=0.335;entryY=-0.028;entryDx=0;entryDy=0;entryPerimeter=0;" edge="1" parent="1" source="lHE03YYVzTh4PFNWfRJk-28" target="lHE03YYVzTh4PFNWfRJk-20">
          <mxGeometry width="50" height="50" relative="1" as="geometry">
            <mxPoint x="451.4" y="1440" as="sourcePoint" />
            <mxPoint x="501.4" y="1390" as="targetPoint" />
          </mxGeometry>
        </mxCell>
        <mxCell id="lHE03YYVzTh4PFNWfRJk-30" value="" style="endArrow=none;html=1;exitX=0.5;exitY=1;exitDx=0;exitDy=0;exitPerimeter=0;" edge="1" parent="1" source="lHE03YYVzTh4PFNWfRJk-27" target="lHE03YYVzTh4PFNWfRJk-22">
          <mxGeometry width="50" height="50" relative="1" as="geometry">
            <mxPoint x="451.4" y="1440" as="sourcePoint" />
            <mxPoint x="501.4" y="1390" as="targetPoint" />
          </mxGeometry>
        </mxCell>
        <mxCell id="lHE03YYVzTh4PFNWfRJk-31" value="&amp;lt;&amp;lt;deriveReq&amp;gt;&amp;gt;" style="text;html=1;strokeColor=none;fillColor=none;align=center;verticalAlign=middle;whiteSpace=wrap;rounded=0;" vertex="1" parent="1">
          <mxGeometry x="-168.6" y="1290" width="130" height="20" as="geometry" />
        </mxCell>
        <mxCell id="lHE03YYVzTh4PFNWfRJk-32" value="" style="endArrow=none;dashed=1;html=1;dashPattern=1 3;strokeWidth=2;exitX=1;exitY=0.5;exitDx=0;exitDy=0;entryX=0;entryY=0.5;entryDx=0;entryDy=0;" edge="1" parent="1" source="lHE03YYVzTh4PFNWfRJk-8" target="lHE03YYVzTh4PFNWfRJk-26">
          <mxGeometry width="50" height="50" relative="1" as="geometry">
            <mxPoint x="61.400000000000006" y="1460" as="sourcePoint" />
            <mxPoint x="111.4" y="1410" as="targetPoint" />
          </mxGeometry>
        </mxCell>
        <mxCell id="lHE03YYVzTh4PFNWfRJk-33" value="" style="endArrow=classic;html=1;entryX=0;entryY=0.5;entryDx=0;entryDy=0;" edge="1" parent="1" target="lHE03YYVzTh4PFNWfRJk-26">
          <mxGeometry width="50" height="50" relative="1" as="geometry">
            <mxPoint x="101.4" y="1315" as="sourcePoint" />
            <mxPoint x="111.4" y="1410" as="targetPoint" />
          </mxGeometry>
        </mxCell>
        <mxCell id="lHE03YYVzTh4PFNWfRJk-34" value="&lt;span&gt;&lt;br&gt;&lt;br&gt;id=&quot;R2.3&quot;&lt;br&gt;El usuario podrá&amp;nbsp;comunicar información&amp;nbsp;con la comunidad según&amp;nbsp;sea su rol dentro del sistema, y podrá&amp;nbsp;propiciar documentos si así&amp;nbsp;lo requiere.&lt;br&gt;&lt;/span&gt;" style="rounded=0;whiteSpace=wrap;html=1;align=left;" vertex="1" parent="1">
          <mxGeometry x="771.4" y="1420" width="200" height="130" as="geometry" />
        </mxCell>
        <mxCell id="lHE03YYVzTh4PFNWfRJk-35" value="" style="endArrow=none;html=1;exitX=0;exitY=0.25;exitDx=0;exitDy=0;entryX=1;entryY=0.25;entryDx=0;entryDy=0;" edge="1" parent="1" source="lHE03YYVzTh4PFNWfRJk-34" target="lHE03YYVzTh4PFNWfRJk-34">
          <mxGeometry width="50" height="50" relative="1" as="geometry">
            <mxPoint x="1044.4" y="1610" as="sourcePoint" />
            <mxPoint x="1094.4" y="1560" as="targetPoint" />
          </mxGeometry>
        </mxCell>
        <mxCell id="lHE03YYVzTh4PFNWfRJk-36" value="&lt;b&gt;&amp;lt;&amp;lt;requirement&amp;gt;&amp;gt;&lt;/b&gt;&lt;b&gt;&lt;br&gt;Notificación&lt;/b&gt;" style="text;html=1;strokeColor=none;fillColor=none;align=center;verticalAlign=middle;whiteSpace=wrap;rounded=0;" vertex="1" parent="1">
          <mxGeometry x="771.4" y="1420" width="200" height="40" as="geometry" />
        </mxCell>
        <mxCell id="lHE03YYVzTh4PFNWfRJk-37" value="" style="verticalLabelPosition=bottom;verticalAlign=top;html=1;shape=mxgraph.flowchart.summing_function;" vertex="1" parent="1">
          <mxGeometry x="301.4" y="1340" width="20" height="20" as="geometry" />
        </mxCell>
        <mxCell id="lHE03YYVzTh4PFNWfRJk-38" value="" style="endArrow=none;html=1;exitX=0.5;exitY=1;exitDx=0;exitDy=0;exitPerimeter=0;entryX=0;entryY=0;entryDx=0;entryDy=0;" edge="1" parent="1" source="lHE03YYVzTh4PFNWfRJk-37" target="lHE03YYVzTh4PFNWfRJk-36">
          <mxGeometry width="50" height="50" relative="1" as="geometry">
            <mxPoint x="151.4" y="1460" as="sourcePoint" />
            <mxPoint x="201.4" y="1410" as="targetPoint" />
          </mxGeometry>
        </mxCell>
        <mxCell id="lHE03YYVzTh4PFNWfRJk-39" value="&lt;b&gt;RefinesBy&lt;br&gt;&amp;lt;&amp;lt;useCase&amp;gt;&amp;gt;&lt;/b&gt;&lt;font style=&quot;font-size: 11px&quot;&gt;interfaz de administracion_CasosDeUso:&lt;br&gt;&lt;/font&gt;Solicitar" style="shape=note;whiteSpace=wrap;html=1;backgroundOutline=1;darkOpacity=0.05;size=15;align=left;" vertex="1" parent="1">
          <mxGeometry x="101.4" y="1680" width="290" height="50" as="geometry" />
        </mxCell>
        <mxCell id="lHE03YYVzTh4PFNWfRJk-40" value="&lt;b&gt;RefinesBy&lt;br&gt;&amp;lt;&amp;lt;useCase&amp;gt;&amp;gt;&lt;/b&gt;&lt;font style=&quot;font-size: 11px&quot;&gt;interfaz de administracion_CasosDeUso:&lt;br&gt;&lt;/font&gt;Reportar" style="shape=note;whiteSpace=wrap;html=1;backgroundOutline=1;darkOpacity=0.05;size=15;align=left;" vertex="1" parent="1">
          <mxGeometry x="461.4" y="1680" width="290" height="50" as="geometry" />
        </mxCell>
        <mxCell id="lHE03YYVzTh4PFNWfRJk-41" value="&lt;b&gt;RefinesBy&lt;br&gt;&amp;lt;&amp;lt;useCase&amp;gt;&amp;gt;&lt;/b&gt;&lt;font style=&quot;font-size: 11px&quot;&gt;interfaz de administracion_CasosDeUso:&lt;br&gt;&lt;/font&gt;Publicar" style="shape=note;whiteSpace=wrap;html=1;backgroundOutline=1;darkOpacity=0.05;size=15;align=left;" vertex="1" parent="1">
          <mxGeometry x="821.4" y="1680" width="290" height="50" as="geometry" />
        </mxCell>
        <mxCell id="lHE03YYVzTh4PFNWfRJk-42" value="" style="endArrow=none;dashed=1;html=1;entryX=0.344;entryY=0.027;entryDx=0;entryDy=0;entryPerimeter=0;exitX=0.5;exitY=1;exitDx=0;exitDy=0;" edge="1" parent="1" source="lHE03YYVzTh4PFNWfRJk-20" target="lHE03YYVzTh4PFNWfRJk-39">
          <mxGeometry width="50" height="50" relative="1" as="geometry">
            <mxPoint x="491.4" y="1590" as="sourcePoint" />
            <mxPoint x="199.4" y="1690" as="targetPoint" />
          </mxGeometry>
        </mxCell>
        <mxCell id="lHE03YYVzTh4PFNWfRJk-43" value="" style="endArrow=none;dashed=1;html=1;exitX=0.448;exitY=1;exitDx=0;exitDy=0;exitPerimeter=0;entryX=0.141;entryY=-0.027;entryDx=0;entryDy=0;entryPerimeter=0;" edge="1" parent="1" source="lHE03YYVzTh4PFNWfRJk-22" target="lHE03YYVzTh4PFNWfRJk-40">
          <mxGeometry width="50" height="50" relative="1" as="geometry">
            <mxPoint x="491.4" y="1590" as="sourcePoint" />
            <mxPoint x="541.4" y="1540" as="targetPoint" />
          </mxGeometry>
        </mxCell>
        <mxCell id="lHE03YYVzTh4PFNWfRJk-44" value="" style="endArrow=none;dashed=1;html=1;entryX=0.138;entryY=0;entryDx=0;entryDy=0;entryPerimeter=0;" edge="1" parent="1" target="lHE03YYVzTh4PFNWfRJk-41">
          <mxGeometry width="50" height="50" relative="1" as="geometry">
            <mxPoint x="861.4" y="1551" as="sourcePoint" />
            <mxPoint x="671.4" y="1490" as="targetPoint" />
          </mxGeometry>
        </mxCell>
        <mxCell id="lHE03YYVzTh4PFNWfRJk-45" value="" style="endArrow=none;dashed=1;html=1;dashPattern=1 3;strokeWidth=2;exitX=0;exitY=0.5;exitDx=0;exitDy=0;" edge="1" parent="1" source="lHE03YYVzTh4PFNWfRJk-8">
          <mxGeometry width="50" height="50" relative="1" as="geometry">
            <mxPoint x="-378.6" y="1325" as="sourcePoint" />
            <mxPoint x="-828.6" y="1315" as="targetPoint" />
          </mxGeometry>
        </mxCell>
        <mxCell id="lHE03YYVzTh4PFNWfRJk-46" value="&amp;lt;&amp;lt;deriveReq&amp;gt;&amp;gt;" style="text;html=1;strokeColor=none;fillColor=none;align=center;verticalAlign=middle;whiteSpace=wrap;rounded=0;" vertex="1" parent="1">
          <mxGeometry x="-765.6" y="1290" width="130" height="20" as="geometry" />
        </mxCell>
        <mxCell id="lHE03YYVzTh4PFNWfRJk-47" value="" style="endArrow=classic;html=1;entryX=1;entryY=0.5;entryDx=0;entryDy=0;dashed=1;" edge="1" parent="1">
          <mxGeometry width="50" height="50" relative="1" as="geometry">
            <mxPoint x="-798.6" y="1315" as="sourcePoint" />
            <mxPoint x="-828.6" y="1315" as="targetPoint" />
          </mxGeometry>
        </mxCell>
        <mxCell id="lHE03YYVzTh4PFNWfRJk-48" value="&lt;br&gt;&lt;br&gt;&lt;br&gt;id=&quot;R3&quot;&lt;br&gt;Se debe permitir al usuario consultar información de su interés dependiendo de su respectivo rol en la plataforma" style="rounded=0;whiteSpace=wrap;html=1;align=left;" vertex="1" parent="1">
          <mxGeometry x="-1028.6" y="1290" width="200" height="130" as="geometry" />
        </mxCell>
        <mxCell id="lHE03YYVzTh4PFNWfRJk-49" value="" style="endArrow=none;html=1;exitX=-0.007;exitY=0.344;exitDx=0;exitDy=0;exitPerimeter=0;entryX=1;entryY=0.333;entryDx=0;entryDy=0;entryPerimeter=0;" edge="1" parent="1" source="lHE03YYVzTh4PFNWfRJk-48" target="lHE03YYVzTh4PFNWfRJk-48">
          <mxGeometry width="50" height="50" relative="1" as="geometry">
            <mxPoint x="-568.6" y="1410" as="sourcePoint" />
            <mxPoint x="-838.6" y="1329" as="targetPoint" />
          </mxGeometry>
        </mxCell>
        <mxCell id="lHE03YYVzTh4PFNWfRJk-50" value="&lt;b&gt;&amp;lt;&amp;lt;requirement&amp;gt;&amp;gt;&lt;br&gt;Consulta de información&lt;/b&gt;" style="text;html=1;strokeColor=none;fillColor=none;align=center;verticalAlign=middle;whiteSpace=wrap;rounded=0;" vertex="1" parent="1">
          <mxGeometry x="-1028.6" y="1300" width="160" height="20" as="geometry" />
        </mxCell>
        <mxCell id="lHE03YYVzTh4PFNWfRJk-51" value="&lt;b&gt;RefinesBy&lt;br&gt;&amp;lt;&amp;lt;useCase&amp;gt;&amp;gt;&lt;/b&gt;&lt;font style=&quot;font-size: 11px&quot;&gt;interfaz de administracion_CasosDeUso:&lt;br&gt;&lt;/font&gt;Consultar" style="shape=note;whiteSpace=wrap;html=1;backgroundOutline=1;darkOpacity=0.05;size=15;align=left;" vertex="1" parent="1">
          <mxGeometry x="-1018.6" y="1540" width="290" height="50" as="geometry" />
        </mxCell>
        <mxCell id="lHE03YYVzTh4PFNWfRJk-52" value="" style="endArrow=none;dashed=1;html=1;exitX=0.5;exitY=1;exitDx=0;exitDy=0;entryX=0.138;entryY=0.013;entryDx=0;entryDy=0;entryPerimeter=0;exitPerimeter=0;" edge="1" parent="1" source="lHE03YYVzTh4PFNWfRJk-53" target="lHE03YYVzTh4PFNWfRJk-51">
          <mxGeometry width="50" height="50" relative="1" as="geometry">
            <mxPoint x="-618.6" y="1510" as="sourcePoint" />
            <mxPoint x="-568.6" y="1460" as="targetPoint" />
          </mxGeometry>
        </mxCell>
        <mxCell id="lHE03YYVzTh4PFNWfRJk-53" value="" style="verticalLabelPosition=bottom;verticalAlign=top;html=1;shape=mxgraph.flowchart.summing_function;" vertex="1" parent="1">
          <mxGeometry x="-988.6" y="1420" width="20" height="20" as="geometry" />
        </mxCell>
        <mxCell id="lHE03YYVzTh4PFNWfRJk-54" value="" style="endArrow=none;dashed=1;html=1;exitX=0.25;exitY=1;exitDx=0;exitDy=0;entryX=0.138;entryY=0.013;entryDx=0;entryDy=0;entryPerimeter=0;" edge="1" parent="1" source="lHE03YYVzTh4PFNWfRJk-48" target="lHE03YYVzTh4PFNWfRJk-53">
          <mxGeometry width="50" height="50" relative="1" as="geometry">
            <mxPoint x="-978.6" y="1420" as="sourcePoint" />
            <mxPoint x="-978.58" y="1540.65" as="targetPoint" />
          </mxGeometry>
        </mxCell>
        <mxCell id="lHE03YYVzTh4PFNWfRJk-56" value="&lt;b&gt;&amp;lt;&amp;lt;requirement&amp;gt;&amp;gt;&lt;/b&gt;&lt;br&gt;&lt;b&gt;Gestión&amp;nbsp; del Área&amp;nbsp; de Actividad Física y deporte&lt;/b&gt;" style="rounded=0;whiteSpace=wrap;html=1;" vertex="1" parent="1">
          <mxGeometry x="-100" y="710" width="190" height="50" as="geometry" />
        </mxCell>
        <mxCell id="lHE03YYVzTh4PFNWfRJk-57" value="" style="verticalLabelPosition=bottom;verticalAlign=top;html=1;shape=mxgraph.flowchart.summing_function;" vertex="1" parent="1">
          <mxGeometry x="-58.599999999999994" y="760" width="20" height="20" as="geometry" />
        </mxCell>
        <mxCell id="lHE03YYVzTh4PFNWfRJk-58" value="" style="verticalLabelPosition=bottom;verticalAlign=top;html=1;shape=mxgraph.flowchart.summing_function;" vertex="1" parent="1">
          <mxGeometry x="20" y="760" width="20" height="20" as="geometry" />
        </mxCell>
        <mxCell id="lHE03YYVzTh4PFNWfRJk-62" value="&lt;b&gt;&amp;lt;&amp;lt;requirement&amp;gt;&amp;gt;&lt;/b&gt;&lt;b&gt;&lt;br&gt;&lt;/b&gt;Gestión de Actividades lúdico- deportiva de Bienestar Universitario&lt;b&gt;&lt;br&gt;&lt;/b&gt;" style="text;html=1;strokeColor=none;fillColor=none;align=center;verticalAlign=middle;whiteSpace=wrap;rounded=0;" vertex="1" parent="1">
          <mxGeometry x="-570" y="875" width="200" height="30" as="geometry" />
        </mxCell>
        <mxCell id="lHE03YYVzTh4PFNWfRJk-63" value="&lt;br&gt;id=&quot;R1.1&quot;&lt;br&gt;Todo usuario debe proporcionar la información de registro necesaria para poder acceder a la plataforma según su rol en la plataforma." style="rounded=0;whiteSpace=wrap;html=1;align=left;" vertex="1" parent="1">
          <mxGeometry x="300" y="705" width="200" height="130" as="geometry" />
        </mxCell>
        <mxCell id="lHE03YYVzTh4PFNWfRJk-64" value="" style="endArrow=none;html=1;exitX=0;exitY=0.25;exitDx=0;exitDy=0;entryX=1;entryY=0.25;entryDx=0;entryDy=0;" edge="1" parent="1" source="lHE03YYVzTh4PFNWfRJk-63" target="lHE03YYVzTh4PFNWfRJk-63">
          <mxGeometry width="50" height="50" relative="1" as="geometry">
            <mxPoint x="600" y="885" as="sourcePoint" />
            <mxPoint x="650" y="835" as="targetPoint" />
          </mxGeometry>
        </mxCell>
        <mxCell id="lHE03YYVzTh4PFNWfRJk-65" value="&lt;b&gt;&amp;lt;&amp;lt;requirement&amp;gt;&amp;gt;&lt;/b&gt;&lt;b&gt;&lt;br&gt;Registro de usuarios&lt;/b&gt;" style="text;html=1;strokeColor=none;fillColor=none;align=center;verticalAlign=middle;whiteSpace=wrap;rounded=0;" vertex="1" parent="1">
          <mxGeometry x="290" y="705" width="200" height="40" as="geometry" />
        </mxCell>
        <mxCell id="lHE03YYVzTh4PFNWfRJk-67" value="" style="endArrow=none;html=1;exitX=0.5;exitY=1;exitDx=0;exitDy=0;exitPerimeter=0;entryX=1;entryY=0;entryDx=0;entryDy=0;" edge="1" parent="1" source="lHE03YYVzTh4PFNWfRJk-57" target="lHE03YYVzTh4PFNWfRJk-69">
          <mxGeometry width="50" height="50" relative="1" as="geometry">
            <mxPoint x="-508.5999999999999" y="1370" as="sourcePoint" />
            <mxPoint x="-507.5999999999999" y="1418" as="targetPoint" />
          </mxGeometry>
        </mxCell>
        <mxCell id="lHE03YYVzTh4PFNWfRJk-70" value="" style="endArrow=none;html=1;rounded=0;entryX=1.002;entryY=0.374;entryDx=0;entryDy=0;entryPerimeter=0;" edge="1" parent="1" target="lHE03YYVzTh4PFNWfRJk-69">
          <mxGeometry width="50" height="50" relative="1" as="geometry">
            <mxPoint x="-570" y="918" as="sourcePoint" />
            <mxPoint x="-340" y="945" as="targetPoint" />
          </mxGeometry>
        </mxCell>
        <mxCell id="lHE03YYVzTh4PFNWfRJk-71" value="" style="verticalLabelPosition=bottom;verticalAlign=top;html=1;shape=mxgraph.flowchart.summing_function;" vertex="1" parent="1">
          <mxGeometry x="-540" y="1015" width="20" height="20" as="geometry" />
        </mxCell>
        <mxCell id="lHE03YYVzTh4PFNWfRJk-74" value="&lt;br style=&quot;text-align: left&quot;&gt;&lt;span style=&quot;text-align: left&quot;&gt;&lt;br&gt;&lt;br&gt;&lt;/span&gt;&lt;div style=&quot;text-align: left&quot;&gt;id=&quot;R1.1&quot;&lt;/div&gt;&lt;span&gt;&lt;div style=&quot;text-align: justify&quot;&gt;&lt;span&gt;Toda oferta debe tener: Horario, lugar y responsable de la actividad, además si se requiere llevar elementos extra a la actividad.&lt;/span&gt;&lt;/div&gt;&lt;/span&gt;" style="rounded=0;whiteSpace=wrap;html=1;" vertex="1" parent="1">
          <mxGeometry x="-480" y="1080" width="200" height="155" as="geometry" />
        </mxCell>
        <mxCell id="lHE03YYVzTh4PFNWfRJk-75" value="&lt;b&gt;&amp;lt;&amp;lt;requirement&amp;gt;&amp;gt;&lt;/b&gt;&lt;b&gt;&lt;br&gt;&lt;/b&gt;Creación de oferta de las actividades ludico-deportivas&lt;b&gt;&lt;br&gt;&lt;/b&gt;" style="text;html=1;strokeColor=none;fillColor=none;align=center;verticalAlign=middle;whiteSpace=wrap;rounded=0;" vertex="1" parent="1">
          <mxGeometry x="-480" y="1095" width="200" height="30" as="geometry" />
        </mxCell>
        <mxCell id="lHE03YYVzTh4PFNWfRJk-76" value="" style="endArrow=none;html=1;rounded=0;entryX=1.002;entryY=0.374;entryDx=0;entryDy=0;entryPerimeter=0;" edge="1" parent="1" target="lHE03YYVzTh4PFNWfRJk-74">
          <mxGeometry width="50" height="50" relative="1" as="geometry">
            <mxPoint x="-480" y="1138" as="sourcePoint" />
            <mxPoint x="-250" y="1165" as="targetPoint" />
            <Array as="points">
              <mxPoint x="-340" y="1138" />
            </Array>
          </mxGeometry>
        </mxCell>
      </root>
    </mxGraphModel>
  </diagram>
</mxfile>
